<?xml version="1.0" encoding="utf-8"?>
<!-- Generator: Adobe Illustrator 18.1.0, SVG Export Plug-In . SVG Version: 6.00 Build 0)  -->
<svg version="1.1" id="Слой_1" xmlns="http://www.w3.org/2000/svg" xmlns:xlink="http://www.w3.org/1999/xlink" x="0px" y="0px"
	 viewBox="0 0 20 19.9" enable-background="new 0 0 20 19.9" xml:space="preserve">
<g>
	<defs>
		<rect id="SVGID_1_" y="0" width="20" height="19.9"/>
	</defs>
	<clipPath id="SVGID_2_">
		<use xlink:href="#SVGID_1_"  overflow="visible"/>
	</clipPath>
	<path clip-path="url(#SVGID_2_)" d="M17.9,9.4H9.4v1.2h8.5l-2.1,2.1l0.9,0.9l3.1-3.1c0.2-0.2,0.2-0.6,0-0.9l-3.1-3.1l-0.9,0.9
		L17.9,9.4z"/>
	<path clip-path="url(#SVGID_2_)" d="M8.1,19.4v-6.2c0-0.3-0.3-0.6-0.6-0.6H4.4H3.1c0,0.7,0.6,1.2,1.2,1.2h2.5v5H3.1
		c-1,0.1-1.8-0.7-1.9-1.7v-0.2V3.1c0-1,0.8-1.8,1.7-1.8h0.2h3.7v5H4.4c-0.7,0-1.2,0.6-1.2,1.2h4.4c0.3,0,0.6-0.3,0.6-0.6V0.6
		C8.1,0.3,7.8,0,7.5,0H3.1C1.5-0.1,0.1,1.2,0,2.9v0.2v13.7c-0.1,1.7,1.2,3.1,2.9,3.1h0.2h4.4C7.8,20,8.1,19.7,8.1,19.4"/>
</g>
</svg>
