<svg display='none'
viewBox="0 0 30 15.8" 
xmlns="http://www.w3.org/2000/svg"
xmlns:xlink="http://www.w3.org/1999/xlink">

  <symbol id="vk" viewBox="0 0 30 15.8" >
    <g>
      <path clip-path="url(#SVGID_2_)" d="M23.9,15.8c-0.4,0-1.2-0.1-2.1-0.6c-0.6-0.4-1.2-1-1.8-1.5c-0.4-0.4-1.2-1.2-1.4-1.2
        c-0.3,0.1-0.5,0.9-0.5,1.6c0,0.1,0,0.8-0.5,1.2c-0.4,0.4-1.1,0.5-1.2,0.5l-1.9,0c-1,0-4.4-0.2-7.4-3c-3.7-3.4-6.8-9.8-7-10.1
        C0,2.2-0.1,1.5,0.3,1.1c0.4-0.4,1.1-0.5,1.4-0.5l4.1,0l0.1,0c0.1,0,0.6,0.1,1,0.3c0.4,0.2,0.6,0.7,0.6,0.7c0,0,0.6,1.4,1.5,2.7
        c1.3,2,1.9,2.5,2.1,2.6c0.2-0.4,0.3-1.7,0.2-2.9c0-0.5-0.1-1.1-0.3-1.3c-0.1-0.1-0.4-0.3-0.8-0.3L9.5,1.8c-0.1-0.7,0.6-1.2,1.1-1.4
        C11.3,0.1,12.4,0,13.8,0l0.7,0c1.2,0,1.6,0.1,2.2,0.2c1.7,0.4,1.6,1.7,1.6,3.3c0,0.5,0,1,0,1.6c0,0.2,0,0.3,0,0.5
        c0,0.4,0,1,0.1,1.3c0.2-0.1,0.9-0.7,2.1-2.5c0.8-1.2,1.4-2.5,1.5-2.8l0,0c0.2-0.4,0.6-0.9,1.6-0.9l4.3,0c0,0,0.2,0,0.4,0
        c1,0,1.6,0.3,1.8,0.9c0.3,0.6,0.2,1.7-2.4,4.6c-0.4,0.4-0.7,0.8-1,1.1c-0.6,0.7-1.2,1.4-1.2,1.6C25.4,9,26,9.5,26.6,10
        c1.5,1.2,2.5,2.3,3,3.1c0.5,0.8,0.4,1.3,0.3,1.7c-0.4,0.9-1.6,1-1.9,1l-3.8,0C24.1,15.8,24.1,15.8,23.9,15.8 M18.6,10.9
        c0.9,0,1.7,0.8,2.5,1.6c0.5,0.5,1,1,1.5,1.3c0.7,0.4,1.3,0.4,1.4,0.4l0.1,0l3.8,0c0.2,0,0.4-0.1,0.5-0.1c0,0,0-0.1-0.1-0.2
        c-0.4-0.7-1.4-1.7-2.7-2.7c-1.2-1-1.8-1.5-1.9-2.2c-0.1-0.8,0.5-1.4,1.6-2.7c0.3-0.3,0.6-0.7,1-1.1c1.6-1.8,2-2.6,2.1-3
        c-0.2,0-0.6,0-0.7,0l-4.4,0c-0.2,0-0.2,0-0.2,0C23,2.6,22.4,4,21.5,5.3c-1.9,2.8-2.8,3.2-3.4,3.2c-0.2,0-0.4,0-0.6-0.1
        c-1-0.6-1-1.8-0.9-2.8c0-0.1,0-0.3,0-0.4c0-0.6,0-1.2,0-1.7c0.1-1.7,0-1.7-0.4-1.8c-0.4-0.1-0.7-0.1-1.9-0.2l-0.7,0
        c-0.6,0-1.3,0-1.9,0.1c0.1,0.1,0.2,0.2,0.3,0.3c0.6,0.7,0.6,2,0.6,2.2c0.1,1.6,0.1,3.8-1,4.3c-0.2,0.1-0.4,0.1-0.6,0.1
        c-0.9,0-1.9-0.9-3.4-3.3C6.8,3.9,6.1,2.4,6.1,2.3c0,0-0.1-0.1-0.1-0.1C5.9,2.2,5.8,2.1,5.7,2.1l-4,0c0,0,0,0-0.1,0
        C2.2,3.3,5,8.7,8.1,11.6c2.7,2.5,5.8,2.6,6.4,2.6l1.9,0c0,0,0.2-0.1,0.3-0.1c0,0,0-0.1,0-0.1c0-0.3,0-2.6,1.6-3
        C18.4,10.9,18.5,10.9,18.6,10.9"/>
    </g>
  </symbol>

  <symbol viewBox="0 0 23 23" id="insta">
    <g>
	<defs>
		<rect id="SVGID_1_" width="23" height="23"/>
	</defs>
	<path clip-path="url(#SVGID_2_)" d="M17,1.5c2.5,0,4.5,2,4.5,4.5v11c0,2.5-2,4.5-4.5,4.5H6c-2.5,0-4.5-2-4.5-4.5V6
		c0-2.5,2-4.5,4.5-4.5L17,1.5 M17,0H6C2.7,0,0,2.7,0,6v11c0,3.3,2.7,6,6,6h11c3.3,0,6-2.7,6-6V6C23,2.7,20.3,0,17,0"/>
	<path clip-path="url(#SVGID_2_)" d="M11.5,7.1c2.4,0,4.4,2,4.4,4.4c0,2.4-2,4.4-4.4,4.4c-2.4,0-4.4-2-4.4-4.4
		C7.1,9.1,9,7.1,11.5,7.1 M11.5,5.6c-3.3,0-5.9,2.7-5.9,5.9s2.7,5.9,5.9,5.9s5.9-2.7,5.9-5.9S14.8,5.6,11.5,5.6"/>
	<path clip-path="url(#SVGID_2_)" d="M17.6,4C18.4,4,19,4.6,19,5.4c0,0.7-0.6,1.3-1.3,1.3c-0.7,0-1.3-0.6-1.3-1.3
		C16.3,4.6,16.9,4,17.6,4"/>
</g>
  </symbol>

  <symbol viewBox="0 0 13.5 27.7" id="fb">
  <g>
	<defs>
		<rect id="SVGID_1_" y="0" width="13.5" height="27.7"/>
	</defs>
	<clipPath id="SVGID_2_">
		<use xlink:href="#SVGID_1_"  overflow="visible"/>
	</clipPath>
	<path clip-path="url(#SVGID_2_)" d="M9.5,27.7H2.7V14.8H0V8.5h2.6C2.4,5.6,2.9,3.5,4.1,2c1-1.2,2.6-1.9,4.6-2l4.8,0v6.2H9.8
		C9.6,6.5,9.5,7.2,9.5,8.5h4v6.4h-4V27.7z M4.2,26.2H8V13.3h4V10H8l0-0.7c0-2,0-3.8,1-4.5l0.2-0.1H12V1.5H8.8C7.2,1.6,6.1,2.1,5.3,3
		c-1,1.2-1.4,3.3-1.1,6.1L4.3,10H1.5v3.4h2.7V26.2z"/>
</g>
  </symbol>

  <symbol viewBox="0 0 26.9 34.1" id="htmlacademy">
    <path d="M13.6,0l-0.1,0L0,1.4v24.7l13.5,8l13.4-8l0,0V1.4L13.6,0z M25,12.1L13.5,5.3l0-0.1l-0.1,0l-0.1-0.1v0.1L1.9,12.1v-9
	l11.5-1.2L25,3.1L25,12.1L25,12.1z M13.4,6.8l11.5,6.7l-4.5,2.6l-7.1-4.2l0,1.4l5.9,3.5l-0.9,0.5l-5-3l0,1.4l3.8,2.3l-0.8,0.5
	l-3-1.8l0,1.4l1.9,1.1l-1.8,1.1L2,13.6L13.4,6.8z M1.9,15.1l11.4,6.8l0,1l-7.9-4.7l0,1.4l8,4.8l0,1.1l-8-4.7l0,1.4l8,4.8l0,0
	l8.1-4.9l0-5.2l3.4-2v10l-11.5,6.9L1.9,25V15.1z"/>
  </symbol>

  <symbol viewBox="0 0 21.1 15.5" id="checkbox">
    <polygon points="20.1,0 7.7,13.3 1,6.1 0,7.2 7.6,15.4 7.7,15.5 21,1.2 21.1,1.1 "/>
  </symbol>
</svg>