<?xml version="1.0" encoding="utf-8"?>
<!-- Generator: Adobe Illustrator 18.1.0, SVG Export Plug-In . SVG Version: 6.00 Build 0)  -->
<svg version="1.1" id="Слой_1" xmlns="http://www.w3.org/2000/svg" xmlns:xlink="http://www.w3.org/1999/xlink" x="0px" y="0px"
	 viewBox="0 0 202 59.5" enable-background="new 0 0 202 59.5" xml:space="preserve">
<g>
	<defs>
		<rect id="SVGID_1_" y="0" width="202" height="59.5"/>
	</defs>
	<clipPath id="SVGID_2_">
		<use xlink:href="#SVGID_1_"  overflow="visible"/>
	</clipPath>
	<path clip-path="url(#SVGID_2_)" fill="#FDC305" d="M59.9,24c-5.5-13-20.5-19.2-33.5-13.8c-13,5.5-19.2,20.5-13.8,33.5
		c3.6,8.6,11.3,14.2,19.9,15.5c-0.6-2.1-1.2-4.4-1.7-6.9c1.5,1,3.1,1.8,4.8,2.6c0,0,0,0,0,0c0,0,0.1,2.2,0.3,4.6
		c1.8,0,3.6-0.1,5.3-0.5c0-0.2,0-0.4,0-0.8c0.3-1.9,1.1-5.2,1.2-7.4c1.1-1.1,2.1-2.3,2.9-3.7c0,0,0,0,0,0c0,0.1,0,0.3-0.1,0.4
		c-0.6,4.3-1.7,8.8-2.4,10.1c-0.2,0.4-0.5,0.9-0.8,1.2c1.4-0.3,2.7-0.8,4.1-1.3C59.2,52,65.3,37,59.9,24 M58.4,27.8
		c-0.4,0.4-1.3,0.7-1.5-0.6c-0.1-1.3-0.2-2.2-0.2-2.2s-1.9-3.4-2.7-3.5c-0.7,0-5.8,3.5-7.2,5c-1.2,1.3-1.4,1.2-1.4,3.5
		c0,1.7,0.2,8.2,0.1,13.1c0,0-2.2,0.6-8.1,2.2c-6,1.6-7.8,1.8-7.8,1.8l-1-5.8h0c0,0,0,0,0,0c0,0,0,0,0,0c0,0,0,0,0,0c0,0,0,0,0,0
		L25.9,28c0,0-3.8-1.4-5.2-1.8c-1.4-0.4-2.3-0.7-4,0.6c-1.8,1.3-1.7,3.9-1.7,3.9s0.4,1,0.5,1.4c0,0.5-1.2,0.4-2,0.4
		s-0.9-1.4-0.3-3.1c0.6-1.7,1.9-3.7,1.9-3.7s1.2-2.3,2.1-2.9c0,0,0.1-0.3,1.3-0.2c1.1,0.1,7.3,0.4,7.3,0.4l0.1-2.3
		c6.7-0.9,13.5-1.4,20.2-1.3c0,0.6,0,1.2-0.1,1.8c0,0,4.4-2,8.1-2c0,0,0.4,0,0.8,0.4c0.3,0.4,2.4,3,2.7,3.4c0.2,0.4,1.2,1.7,1.8,3
		C59.3,26,58.8,27.3,58.4,27.8"/>
	<path clip-path="url(#SVGID_2_)" fill="#F06351" d="M56.5,21.7c0.5,0.6,0.9,1.1,1,1.3c0.2,0.4,1.2,1.7,1.8,3c0,0-0.4,1.3-0.9,1.8
		c-0.4,0.4-1.3,0.7-1.5-0.6c-0.1-1.3-0.2-2.2-0.2-2.2s-1.9-3.4-2.7-3.5c-0.7,0-5.8,3.5-7.2,5c-1.2,1.3-1.4,1.2-1.4,3.5
		c0,1.5,0.2,6.6,0.1,11.2c1.8,0.2,4.5,0.7,5.3,1.9c0,0-0.3-7.2,7.8-3.4c0,0,0.3-9.8,11.5-7.3C70.2,32.4,64.5,25.4,56.5,21.7"/>
	<path clip-path="url(#SVGID_2_)" fill="#F06351" d="M45.9,19.4c0.1-8.5-1.4-16.5-1.4-16.5s-0.1-1.3-0.9-0.2s-1.2,4-1.2,4
		C35,6.1,29.6,6.9,29.6,6.9c-0.8-2.7-2.2-4-2.9-3.7C26.1,3.5,26,6.5,26,6.5l-0.3,14.2C32.4,19.8,39.2,19.3,45.9,19.4"/>
	<path clip-path="url(#SVGID_2_)" fill="#E55645" d="M45.4,47.1c0.1-1.1,0.2-2.5,0.2-4.1c0,0-2.2,0.6-8.1,2.2
		c-6,1.6-7.8,1.8-7.8,1.8l1.1,5c0,0.1,0,0.2,0.1,0.3c1.5,1,3.1,1.8,4.8,2.6c4.4-2.2,6.9-4.1,6.9-4.1c0,0,0,0,0,0.1
		C43.6,49.8,44.6,48.5,45.4,47.1"/>
	<path clip-path="url(#SVGID_2_)" d="M32,16.2c0-0.1,1,0.7,1.4,0.9c0.4,0.2,0.6,0.4,0.6,0.6c0,0.2-0.3,0.3-0.6,0.3
		c-0.4,0-0.9-0.1-1-0.3c0,0,0.6,0,0.9,0h0.3C33.7,17.8,32.3,16.7,32,16.2"/>
	<path clip-path="url(#SVGID_2_)" d="M39.5,16.3c0,0-1.1,1.3-1.1,1.3c0,0.1-0.2,0.3,0.2,0.3c0.4,0,1.1-0.2,1.2-0.3
		c0.1-0.1,0.1-0.2-0.1-0.2c-0.2,0-0.7,0-1,0.1L39.5,16.3C39.6,16.3,39.6,16.2,39.5,16.3"/>
	<path clip-path="url(#SVGID_2_)" d="M36.4,22.4c0,0,0.8-0.4,1.1-1c0.3-0.7,0-0.9-0.4-1c-0.5-0.1-1.3,0-1.7,0.3
		c-0.4,0.4-0.3,0.7-0.1,1C35.5,22,36.1,22.4,36.4,22.4"/>
	<path clip-path="url(#SVGID_2_)" fill="#F06351" d="M35.9,23.7c0,0-0.2,0.4-0.5,0.6c-0.2,0.2-0.6,0.4-1,0.4c-0.6,0-1.1-0.2-1.5-0.4
		c-0.2-0.1-0.4-0.3-0.5-0.4c-0.2-0.2-0.4-0.3-0.4-0.3s0.8,4.1,2.6,4.8c1.8,0.7,2.2-0.8,2.2-1.1c0-0.3,0-2.1-0.8-3.2
		C36.1,23.6,36,23.8,35.9,23.7"/>
	<path clip-path="url(#SVGID_2_)" d="M34.3,24.8L34.3,24.8c-1.3,0-2.3-1.4-2.4-1.4c0-0.1,0-0.2,0-0.2c0.1,0,0.2,0,0.2,0
		c0,0,1,1.3,2.1,1.3h0c0.6,0,1.1-0.3,1.6-1l0.1-0.2l0.1,0.2c0,0,0.4,0.8,1,0.8c0.5,0,1.1-0.4,1.6-1.3c0-0.1,0.1-0.1,0.2,0
		c0.1,0,0.1,0.1,0,0.2c-0.6,1-1.3,1.5-1.9,1.4c-0.6,0-0.9-0.5-1.1-0.8C35.5,24.5,34.9,24.8,34.3,24.8"/>
	<path clip-path="url(#SVGID_2_)" fill="#FDC305" d="M32.8,36c-0.8-1.9,0.1-4.1,2-4.9c1.9-0.8,4.1,0.1,4.9,2c0.8,1.9-0.1,4.1-2,4.9
		S33.6,37.9,32.8,36"/>
	<path clip-path="url(#SVGID_2_)" fill="#111111" d="M41.2,31.5l-3.1,1.3l1.2-5.6l-7.5,9.8l3.1-1.3l-1.2,5.6L41.2,31.5z M33.8,35.3
		l4.1-5.4l-0.8,4l2-0.8L35,38.5l0.8-4L33.8,35.3z"/>
	<path clip-path="url(#SVGID_2_)" fill="#111111" d="M31.4,33.2c-0.2-0.6,0-1.2,0.6-1.5c0.6-0.2,1.2,0,1.5,0.6
		c0.2,0.6,0,1.2-0.6,1.5C32.3,34,31.6,33.7,31.4,33.2"/>
	<path clip-path="url(#SVGID_2_)" fill="#111111" d="M38.2,37.4c-0.2-0.4,0-0.9,0.4-1s0.9,0,1,0.4c0.2,0.4,0,0.9-0.4,1
		C38.9,38,38.4,37.8,38.2,37.4"/>
	<path clip-path="url(#SVGID_2_)" fill="#111111" d="M39.6,35.5c-0.1-0.2,0-0.4,0.2-0.5c0.2-0.1,0.4,0,0.5,0.2s0,0.4-0.2,0.5
		C39.9,35.8,39.7,35.7,39.6,35.5"/>
	<path clip-path="url(#SVGID_2_)" fill="#F06351" d="M45.9,21.2c0,0-2.6,2.3-5.1,5.2c-2.5,3-5.3,4.9-5.3,4.9
		c-0.2-0.5-1.6-1.5-1.6-1.5s-3.1-2.1-5.2-3.8c-1.2-1-2.4-2.2-3.1-3c-0.3,0-1.1-0.1-2-0.1c4.7,7,12,8.8,12,8.8
		c0.9-0.1,3.3-1.9,5.1-3.3c1.8-1.4,4.8-4.5,6-5.9c0.6-0.7,0.9-1.4,1.1-2C46.6,20.8,45.9,21.2,45.9,21.2"/>
	<polygon clip-path="url(#SVGID_2_)" fill="#FDC305" points="65.2,3.5 56.8,12.9 55.5,10.9 63.7,0 	"/>
	<polygon clip-path="url(#SVGID_2_)" fill="#FDC305" points="62.6,17.3 68.2,13.1 67.4,9.4 62,14.2 	"/>
	<polygon clip-path="url(#SVGID_2_)" fill="#FDC305" points="59.9,49.4 66.1,52.6 69.1,50.2 62.4,47.5 	"/>
	<polygon clip-path="url(#SVGID_2_)" fill="#FDC305" points="2,6 5,2.6 14.3,11.6 13.1,13.9 	"/>
	<polygon clip-path="url(#SVGID_2_)" fill="#FDC305" points="7.4,16.3 2.7,13.2 0.3,17 5.4,19.4 	"/>
	<polygon clip-path="url(#SVGID_2_)" fill="#FDC305" points="13.9,52.6 9.4,55.9 12.2,59.5 16.2,55.5 	"/>
	<path clip-path="url(#SVGID_2_)" fill="#F06351" d="M25.9,28c0,0-3.8-1.4-5.2-1.8c-1.4-0.4-2.3-0.7-4,0.6c-1.8,1.3-1.7,3.9-1.7,3.9
		s0.4,1,0.5,1.4c0,0.5-1.2,0.4-2,0.4c-0.8,0-0.9-1.4-0.3-3.1c0.6-1.7,1.9-3.7,1.9-3.7c-5.4,2.8-15,9.4-15,9.4s2.9-0.3,8.2,0.2
		s5,4.7,5,4.7s3.5-1,5.6-1.1c2.1-0.1,2.3,2.1,2.3,2.1l0.5,3.9c0,0,0.5-0.6,2.6-2.4c1.9-1.5,3.9-1.4,4.4-1.3c0,0,0,0,0,0L25.9,28z"/>
	<path clip-path="url(#SVGID_2_)" fill="#111111" d="M85.7,42c-0.9-1.2-1.4-2.9-1.4-5.2v-7.5c0-2.3,0.5-4.1,1.4-5.2
		c0.9-1.2,2.5-1.8,4.8-1.8c2.1,0,3.7,0.5,4.5,1.6c0.9,1,1.3,2.5,1.3,4.5v1.8h-4.1v-1.9c0-0.6,0-1.1-0.1-1.5
		c-0.1-0.4-0.2-0.7-0.5-0.9c-0.2-0.2-0.6-0.4-1.2-0.4c-0.8,0-1.3,0.3-1.5,0.8c-0.2,0.5-0.3,1.2-0.3,2.2v9.5c0,1,0.1,1.7,0.4,2.2
		c0.3,0.5,0.7,0.7,1.5,0.7c0.7,0,1.2-0.2,1.4-0.7c0.2-0.5,0.3-1.2,0.3-2.2v-2h4.1v1.7c0,2-0.4,3.6-1.3,4.6c-0.9,1.1-2.4,1.6-4.6,1.6
		C88.2,43.8,86.6,43.2,85.7,42"/>
	<path clip-path="url(#SVGID_2_)" fill="#111111" d="M101.9,22.6h4.7l4,21h-3.9l-0.8-4.6h-3.3l-0.8,4.6h-4L101.9,22.6z M105.6,36.3
		l-1.3-8.4l-1.2,8.4H105.6z"/>
	<polygon clip-path="url(#SVGID_2_)" fill="#111111" points="113.7,25.7 110.5,25.7 110.5,22.6 121.2,22.6 121.2,25.7 118,25.7 
		118,43.5 113.7,43.5 	"/>
	<polygon clip-path="url(#SVGID_2_)" fill="#444444" points="129.6,22.6 137.7,22.6 137.7,24.8 132.5,24.8 132.5,31.7 136.8,31.7 
		136.8,33.8 132.5,33.8 132.5,41.5 137.8,41.5 137.8,43.5 129.6,43.5 	"/>
	<polygon clip-path="url(#SVGID_2_)" fill="#444444" points="140.1,22.6 142.1,22.6 148.1,36.5 148.1,22.6 150.5,22.6 150.5,43.5 
		148.7,43.5 142.6,29.2 142.6,43.5 140.1,43.5 	"/>
	<polygon clip-path="url(#SVGID_2_)" fill="#444444" points="153.8,22.6 161.9,22.6 161.9,24.8 156.7,24.8 156.7,31.7 161,31.7 
		161,33.8 156.7,33.8 156.7,41.5 162,41.5 162,43.5 153.8,43.5 	"/>
	<path clip-path="url(#SVGID_2_)" fill="#444444" d="M164.4,22.6h4.2c2.1,0,3.7,0.4,4.7,1.3c1,0.9,1.5,2.3,1.5,4.3
		c0,2.7-0.9,4.3-2.6,4.9l3,10.5h-2.8l-2.7-9.8h-2.3v9.8h-2.9V22.6z M168.4,31.6c1.3,0,2.2-0.3,2.7-0.8c0.5-0.5,0.8-1.4,0.8-2.7
		c0-0.9-0.1-1.5-0.3-2c-0.2-0.5-0.5-0.9-1-1.1c-0.5-0.2-1.2-0.3-2-0.3h-1.3v6.9H168.4z"/>
	<path clip-path="url(#SVGID_2_)" fill="#444444" d="M178.7,42c-0.8-1.2-1.3-3-1.3-5.3v-7c0-1.6,0.2-3,0.5-4c0.3-1,0.9-1.8,1.7-2.4
		c0.8-0.6,1.9-0.8,3.4-0.8c1.9,0,3.3,0.5,4.2,1.5c0.9,1,1.3,2.5,1.3,4.6v0.8h-2.7v-0.6c0-1-0.1-1.8-0.2-2.3c-0.1-0.5-0.4-1-0.8-1.2
		c-0.4-0.3-1-0.4-1.7-0.4c-0.8,0-1.4,0.2-1.8,0.6c-0.4,0.4-0.7,0.9-0.8,1.5c-0.1,0.6-0.2,1.4-0.2,2.5V37c0,1.6,0.2,2.8,0.6,3.5
		c0.4,0.7,1.1,1,2.2,1c1.1,0,1.8-0.4,2.2-1.1c0.4-0.8,0.6-2,0.6-3.6v-1.5h-2.7v-2.1h5.3v10.4h-1.8l-0.3-2.4
		c-0.7,1.8-1.9,2.7-3.7,2.7C180.9,43.8,179.5,43.2,178.7,42"/>
	<polygon clip-path="url(#SVGID_2_)" fill="#444444" points="194.7,36.1 190.2,22.6 192.9,22.6 196.1,32.7 199.2,22.6 202,22.6 
		197.5,36.1 197.5,43.5 194.7,43.5 	"/>
</g>
</svg>
